<?xml version="1.0" encoding="UTF-8" standalone="no"?>
<svg
   height="48"
   width="48"
   version="1.1"
   id="svg4"
   sodipodi:docname="mail_icon.svg"
   inkscape:version="1.1 (c68e22c387, 2021-05-23)"
   xmlns:inkscape="http://www.inkscape.org/namespaces/inkscape"
   xmlns:sodipodi="http://sodipodi.sourceforge.net/DTD/sodipodi-0.dtd"
   xmlns="http://www.w3.org/2000/svg"
   xmlns:svg="http://www.w3.org/2000/svg">
  <defs
     id="defs8" />
  <sodipodi:namedview
     id="namedview6"
     pagecolor="#505050"
     bordercolor="#eeeeee"
     borderopacity="1"
     inkscape:pageshadow="0"
     inkscape:pageopacity="0"
     inkscape:pagecheckerboard="0"
     showgrid="false"
     inkscape:snap-page="true"
     inkscape:snap-bbox="true"
     inkscape:snap-bbox-midpoints="true"
     inkscape:snap-bbox-edge-midpoints="true"
     inkscape:zoom="12.197592"
     inkscape:cx="17.667422"
     inkscape:cy="27.505429"
     inkscape:window-width="1920"
     inkscape:window-height="991"
     inkscape:window-x="-9"
     inkscape:window-y="-9"
     inkscape:window-maximized="1"
     inkscape:current-layer="svg4" />
  <path
     d="m 3.5999997,43.200001 q -1.44,0 -2.5200001,-1.080001 Q -4.0000001e-7,41.04 -4.0000001e-7,39.600001 V 8.3999998 q 0,-1.4400003 1.08000000000001,-2.5200001 Q 2.1599997,4.7999996 3.5999997,4.7999996 H 44.400001 Q 45.84,4.7999996 46.92,5.8799997 48,6.9599995 48,8.3999998 V 39.600001 Q 48,41.04 46.92,42.12 q -1.08,1.080001 -2.519999,1.080001 z m 40.8000013,-31.5 -19.440002,12.719998 Q 24.720001,24.540004 24.51,24.63 24.299999,24.72 24,24.72 q -0.299999,0 -0.51,-0.09 -0.210001,-0.09 -0.449999,-0.210001 L 3.5999997,11.700001 v 27.9 H 44.400001 Z M 24,21.48 44.16,8.3999998 H 3.8999996 Z M 3.5999997,11.700001 V 12.12 9.7500003 9.7799953 8.3999961 9.7799953 9.719993 12.119992 11.699993 39.599994 Z"
     id="path2"
     style="stroke-width:1.20001;fill:#ffffff;fill-opacity:1" />
</svg>
