<?xml version="1.0" encoding="UTF-8" standalone="no"?>
<svg
   height="48"
   width="48"
   version="1.1"
   id="svg4"
   sodipodi:docname="phone_icon.svg"
   inkscape:version="1.1 (c68e22c387, 2021-05-23)"
   xmlns:inkscape="http://www.inkscape.org/namespaces/inkscape"
   xmlns:sodipodi="http://sodipodi.sourceforge.net/DTD/sodipodi-0.dtd"
   xmlns="http://www.w3.org/2000/svg"
   xmlns:svg="http://www.w3.org/2000/svg">
  <defs
     id="defs8" />
  <sodipodi:namedview
     id="namedview6"
     pagecolor="#505050"
     bordercolor="#eeeeee"
     borderopacity="1"
     inkscape:pageshadow="0"
     inkscape:pageopacity="0"
     inkscape:pagecheckerboard="0"
     showgrid="false"
     inkscape:snap-page="true"
     inkscape:zoom="8.625"
     inkscape:cx="13.73913"
     inkscape:cy="30.202899"
     inkscape:window-width="1920"
     inkscape:window-height="991"
     inkscape:window-x="-9"
     inkscape:window-y="-9"
     inkscape:window-maximized="1"
     inkscape:current-layer="svg4" />
  <path
     d="M 45,48 Q 36.866667,48 28.833333,44 20.8,40 14.4,33.6 8,27.2 4,19.166667 0,11.133333 0,3 0,1.7333333 0.86666667,0.86666667 1.7333333,0 3,0 h 9.333333 q 0.933334,0 1.633334,0.63333333 0.7,0.63333337 0.9,1.69999997 l 1.8,8.3999997 q 0.133333,0.933334 -0.03333,1.7 -0.166666,0.766667 -0.7,1.3 l -6.6666663,6.733334 q 3.7333333,6.2 8.3666663,10.8 4.633334,4.6 10.5,7.8 l 6.333334,-6.533334 Q 35.133333,31.8 36,31.5 q 0.866667,-0.3 1.733333,-0.1 l 7.933334,1.733333 q 1,0.2 1.666666,1 Q 48,34.933333 48,36 v 9 q 0,1.266667 -0.866667,2.133333 Q 46.266667,48 45,48 Z M 7.2666667,16.8 12.666667,11.333333 11.133333,4 H 4 q 0,2.6 0.8,5.7 0.8,3.1 2.4666667,7.1 z M 44,44 v -7.133333 l -6.866667,-1.4 L 31.866667,41 Q 34.6,42.266667 37.8,43.066667 41,43.866667 44,44 Z M 31.866667,41 Z M 7.2666667,16.8 Z"
     id="path2"
     style="stroke-width:1.33333;fill:#ffffff;fill-opacity:1" />
</svg>
