<?xml version="1.0" encoding="UTF-8" standalone="no"?>
<svg
   height="48"
   width="48"
   version="1.1"
   id="svg4"
   sodipodi:docname="place_icon.svg"
   inkscape:version="1.1 (c68e22c387, 2021-05-23)"
   xmlns:inkscape="http://www.inkscape.org/namespaces/inkscape"
   xmlns:sodipodi="http://sodipodi.sourceforge.net/DTD/sodipodi-0.dtd"
   xmlns="http://www.w3.org/2000/svg"
   xmlns:svg="http://www.w3.org/2000/svg">
  <defs
     id="defs8" />
  <sodipodi:namedview
     id="namedview6"
     pagecolor="#505050"
     bordercolor="#eeeeee"
     borderopacity="1"
     inkscape:pageshadow="0"
     inkscape:pageopacity="0"
     inkscape:pagecheckerboard="0"
     showgrid="false"
     inkscape:snap-bbox="true"
     inkscape:snap-bbox-midpoints="true"
     inkscape:snap-bbox-edge-midpoints="true"
     inkscape:bbox-nodes="true"
     inkscape:snap-page="true"
     inkscape:zoom="12.197592"
     inkscape:cx="15.94577"
     inkscape:cy="26.767578"
     inkscape:window-width="1920"
     inkscape:window-height="991"
     inkscape:window-x="-9"
     inkscape:window-y="-9"
     inkscape:window-maximized="1"
     inkscape:current-layer="svg4" />
  <path
     d="m 24,23.756346 q 1.766497,0 3.015229,-1.248732 1.248731,-1.248731 1.248731,-3.015228 0,-1.766498 -1.248731,-3.015228 Q 25.766497,15.228427 24,15.228427 q -1.766497,0 -3.015229,1.248731 -1.248731,1.24873 -1.248731,3.015228 0,1.766497 1.248731,3.015228 Q 22.233503,23.756346 24,23.756346 Z m 0,20.162436 q 8.101523,-7.370558 11.969544,-13.370559 3.868019,-5.999999 3.868019,-10.568528 0,-7.187816 -4.598985,-11.7563448 Q 30.639594,3.6548224 24,3.6548224 q -6.639594,0 -11.238578,4.5685278 -4.5989856,4.5685288 -4.5989856,11.7563448 0,4.568529 3.9593906,10.568528 Q 16.081218,36.548224 24,43.918782 Z M 24.060914,48 Q 23.634518,48 23.269036,47.878173 22.903554,47.756346 22.598985,47.51269 13.522842,39.532996 9.0152284,32.710659 4.5076142,25.888325 4.5076142,19.979695 q 0,-9.137056 5.8781728,-14.5583752 Q 16.26396,0 24,0 q 7.73604,0 13.614213,5.4213198 5.878173,5.4213192 5.878173,14.5583752 0,5.90863 -4.507615,12.730964 -4.507613,6.822337 -13.583756,14.802031 -0.304569,0.243656 -0.639593,0.365483 Q 24.426396,48 24.060914,48 Z M 24,19.979695 Z"
     id="path2"
     style="stroke-width:1.21828;fill:#ffffff;fill-opacity:1" />
</svg>
