<?xml version="1.0" encoding="UTF-8" standalone="no"?>
<svg
   viewBox="0 0 448.03 100.43"
   version="1.1"
   id="svg30"
   sodipodi:docname="logo_appletree.svg"
   inkscape:version="1.1 (c68e22c387, 2021-05-23)"
   xmlns:inkscape="http://www.inkscape.org/namespaces/inkscape"
   xmlns:sodipodi="http://sodipodi.sourceforge.net/DTD/sodipodi-0.dtd"
   xmlns="http://www.w3.org/2000/svg"
   xmlns:svg="http://www.w3.org/2000/svg">
  <sodipodi:namedview
     id="namedview32"
     pagecolor="#505050"
     bordercolor="#eeeeee"
     borderopacity="1"
     inkscape:pageshadow="0"
     inkscape:pageopacity="0"
     inkscape:pagecheckerboard="0"
     showgrid="false"
     inkscape:zoom="2.1669478"
     inkscape:cx="198.20505"
     inkscape:cy="50.993384"
     inkscape:window-width="1920"
     inkscape:window-height="991"
     inkscape:window-x="-9"
     inkscape:window-y="-9"
     inkscape:window-maximized="1"
     inkscape:current-layer="svg30" />
  <defs
     id="defs4">
    <style
       id="style2">.cls-1{fill:#2e2b2c;}.cls-2{fill:#3fa535;}</style>
  </defs>
  <g
     id="Capa_2"
     data-name="Capa 2"
     style="fill:#ffffff;fill-opacity:1">
    <g
       id="Capa_1-2"
       data-name="Capa 1"
       style="fill:#ffffff;fill-opacity:1">
      <path
         class="cls-1"
         d="M40.83,29.3H53.9V81.38H40.83v-5.5a25.79,25.79,0,0,1-7.67,5.24,21.49,21.49,0,0,1-8.35,1.6A23.21,23.21,0,0,1,7.36,74.9Q0,67.07,0,55.44,0,43.38,7.12,35.67A22.7,22.7,0,0,1,24.43,28a22,22,0,0,1,8.8,1.77,23.92,23.92,0,0,1,7.6,5.32ZM27.09,40A13.18,13.18,0,0,0,17,44.31a15.42,15.42,0,0,0-4,11A15.6,15.6,0,0,0,17.1,66.4a13.18,13.18,0,0,0,10,4.35,13.45,13.45,0,0,0,10.21-4.28c2.7-2.85,4.06-6.6,4.06-11.22a15.23,15.23,0,0,0-4.06-11A13.62,13.62,0,0,0,27.09,40Z"
         id="path6"
         style="fill:#ffffff;fill-opacity:1" />
      <path
         class="cls-1"
         d="M75.18,29.3v5.75a24.37,24.37,0,0,1,7.66-5.32A22,22,0,0,1,91.65,28,22.75,22.75,0,0,1,109,35.67q7.13,7.71,7.13,19.77,0,11.63-7.37,19.46T91.27,82.72a21.64,21.64,0,0,1-8.38-1.6,25.56,25.56,0,0,1-7.71-5.24v24.55h-13V29.3ZM88.92,40a13.63,13.63,0,0,0-10.24,4.22,15.16,15.16,0,0,0-4.07,11c0,4.62,1.35,8.37,4.07,11.22a13.5,13.5,0,0,0,10.24,4.28A13.23,13.23,0,0,0,99,66.4a15.57,15.57,0,0,0,4.1-11.1,15.42,15.42,0,0,0-4-11A13.33,13.33,0,0,0,88.92,40Z"
         id="path8"
         style="fill:#ffffff;fill-opacity:1" />
      <path
         class="cls-1"
         d="M135,29.3v5.75a24.37,24.37,0,0,1,7.66-5.32,22,22,0,0,1,8.8-1.77,22.72,22.72,0,0,1,17.33,7.71q7.14,7.71,7.13,19.77,0,11.63-7.37,19.46a23.23,23.23,0,0,1-17.47,7.82,21.71,21.71,0,0,1-8.38-1.6,25.65,25.65,0,0,1-7.7-5.24v24.55H122V29.3ZM148.74,40a13.65,13.65,0,0,0-10.25,4.22,15.2,15.2,0,0,0-4.07,11c0,4.62,1.36,8.37,4.07,11.22a13.52,13.52,0,0,0,10.25,4.28,13.26,13.26,0,0,0,10.07-4.35,15.56,15.56,0,0,0,4.09-11.1,15.42,15.42,0,0,0-4-11A13.3,13.3,0,0,0,148.74,40Z"
         id="path10"
         style="fill:#ffffff;fill-opacity:1" />
      <path
         class="cls-1"
         d="M180.4,9.2h13.07V81.38H180.4Z"
         id="path12"
         style="fill:#ffffff;fill-opacity:1" />
      <path
         class="cls-1"
         d="M252.62,59.13h-42A13.93,13.93,0,0,0,215.5,68a15.26,15.26,0,0,0,10.07,3.28,17.4,17.4,0,0,0,12.59-5.13l11,5.17a25.92,25.92,0,0,1-9.86,8.64,30.8,30.8,0,0,1-13.64,2.8q-12.25,0-20-7.73T198,55.63q0-11.93,7.68-19.79A25.81,25.81,0,0,1,225,28q12.3,0,20,7.88t7.71,20.8Zm-13.07-10.3a13.12,13.12,0,0,0-5.11-7.08A14.79,14.79,0,0,0,225.6,39,15.65,15.65,0,0,0,216,42.08q-2.59,1.92-4.8,6.75Z"
         id="path14"
         style="fill:#ffffff;fill-opacity:1" />
      <path
         class="cls-1"
         d="M282.4,10.11h13.07V29.3h7.75V40.55h-7.75V81.38H282.4V40.55h-6.7V29.3h6.7Z"
         id="path16"
         style="fill:#ffffff;fill-opacity:1" />
      <path
         class="cls-1"
         d="M308.44,29.3h11.2v6.56A14,14,0,0,1,324.48,30a11.65,11.65,0,0,1,6.6-2,12.27,12.27,0,0,1,5.32,1.34l-4.07,11.25a8.92,8.92,0,0,0-3.78-1.15q-3,0-5.1,3.74t-2.08,14.64l.05,2.54V81.38h-13Z"
         id="path18"
         style="fill:#ffffff;fill-opacity:1" />
      <path
         class="cls-1"
         d="M390.13,59.13h-42A14,14,0,0,0,353,68a15.29,15.29,0,0,0,10.08,3.28,17.41,17.41,0,0,0,12.59-5.13l11,5.17a26,26,0,0,1-9.86,8.64,30.82,30.82,0,0,1-13.65,2.8q-12.26,0-20-7.73t-7.7-19.36q0-11.93,7.68-19.79A25.8,25.8,0,0,1,362.47,28q12.3,0,20,7.88t7.7,20.8Zm-13.06-10.3A13.17,13.17,0,0,0,372,41.75,14.8,14.8,0,0,0,363.11,39a15.67,15.67,0,0,0-9.59,3.06q-2.58,1.92-4.79,6.75Z"
         id="path20"
         style="fill:#ffffff;fill-opacity:1" />
      <path
         class="cls-1"
         d="M448,59.13H406A14,14,0,0,0,410.86,68a15.31,15.31,0,0,0,10.08,3.28,17.41,17.41,0,0,0,12.59-5.13l11,5.17a25.92,25.92,0,0,1-9.86,8.64A30.8,30.8,0,0,1,421,82.72q-12.26,0-20-7.73t-7.71-19.36q0-11.93,7.68-19.79A25.81,25.81,0,0,1,420.32,28q12.3,0,20,7.88t7.7,20.8Zm-13.07-10.3a13.12,13.12,0,0,0-5.11-7.08A14.79,14.79,0,0,0,421,39a15.63,15.63,0,0,0-9.59,3.06q-2.6,1.92-4.8,6.75Z"
         id="path22"
         style="fill:#ffffff;fill-opacity:1" />
      <path
         class="cls-2"
         d="M224.94,24.12C225,23.22,226.65.05,200.8,0h-.05l.05,0c-.08.9-1.71,24.07,24.14,24.12h0Z"
         id="path24"
         style="fill:#ffffff;fill-opacity:1" />
      <path
         class="cls-2"
         d="M228.76,24.12c.69.06,18.49,1.32,18.53-18.55h0v0l0,0c-.69-.06-18.49-1.31-18.53,18.55h0v0Z"
         id="path26"
         style="fill:#ffffff;fill-opacity:1" />
    </g>
  </g>
  <g
     id="Capa_2-8"
     data-name="Capa 2"
     transform="translate(-448.51448,-129.83577)">
    <g
       id="Capa_1-2-4"
       data-name="Capa 1">
      <path
         class="cls-1"
         d="M 40.83,29.3 H 53.9 V 81.38 H 40.83 v -5.5 a 25.79,25.79 0 0 1 -7.67,5.24 21.49,21.49 0 0 1 -8.35,1.6 A 23.21,23.21 0 0 1 7.36,74.9 Q 0,67.07 0,55.44 0,43.38 7.12,35.67 A 22.7,22.7 0 0 1 24.43,28 a 22,22 0 0 1 8.8,1.77 23.92,23.92 0 0 1 7.6,5.32 z M 27.09,40 A 13.18,13.18 0 0 0 17,44.31 a 15.42,15.42 0 0 0 -4,11 15.6,15.6 0 0 0 4.1,11.09 13.18,13.18 0 0 0 10,4.35 13.45,13.45 0 0 0 10.21,-4.28 c 2.7,-2.85 4.06,-6.6 4.06,-11.22 A 15.23,15.23 0 0 0 37.31,44.25 13.62,13.62 0 0 0 27.09,40 Z"
         id="path6-0" />
      <path
         class="cls-1"
         d="m 75.18,29.3 v 5.75 A 24.37,24.37 0 0 1 82.84,29.73 22,22 0 0 1 91.65,28 22.75,22.75 0 0 1 109,35.67 q 7.13,7.71 7.13,19.77 0,11.63 -7.37,19.46 -7.37,7.83 -17.49,7.82 a 21.64,21.64 0 0 1 -8.38,-1.6 25.56,25.56 0 0 1 -7.71,-5.24 v 24.55 h -13 V 29.3 Z M 88.92,40 a 13.63,13.63 0 0 0 -10.24,4.22 15.16,15.16 0 0 0 -4.07,11 c 0,4.62 1.35,8.37 4.07,11.22 A 13.5,13.5 0 0 0 88.92,70.72 13.23,13.23 0 0 0 99,66.4 15.57,15.57 0 0 0 103.1,55.3 15.42,15.42 0 0 0 99.1,44.3 13.33,13.33 0 0 0 88.92,40 Z"
         id="path8-8" />
      <path
         class="cls-1"
         d="m 135,29.3 v 5.75 a 24.37,24.37 0 0 1 7.66,-5.32 22,22 0 0 1 8.8,-1.77 22.72,22.72 0 0 1 17.33,7.71 q 7.14,7.71 7.13,19.77 0,11.63 -7.37,19.46 a 23.23,23.23 0 0 1 -17.47,7.82 21.71,21.71 0 0 1 -8.38,-1.6 25.65,25.65 0 0 1 -7.7,-5.24 v 24.55 H 122 V 29.3 Z M 148.74,40 a 13.65,13.65 0 0 0 -10.25,4.22 15.2,15.2 0 0 0 -4.07,11 c 0,4.62 1.36,8.37 4.07,11.22 a 13.52,13.52 0 0 0 10.25,4.28 13.26,13.26 0 0 0 10.07,-4.35 15.56,15.56 0 0 0 4.09,-11.1 15.42,15.42 0 0 0 -4,-11 A 13.3,13.3 0 0 0 148.74,40 Z"
         id="path10-4" />
      <path
         class="cls-1"
         d="m 180.4,9.2 h 13.07 V 81.38 H 180.4 Z"
         id="path12-6" />
      <path
         class="cls-1"
         d="m 252.62,59.13 h -42 a 13.93,13.93 0 0 0 4.88,8.87 15.26,15.26 0 0 0 10.07,3.28 17.4,17.4 0 0 0 12.59,-5.13 l 11,5.17 a 25.92,25.92 0 0 1 -9.86,8.64 30.8,30.8 0 0 1 -13.64,2.8 q -12.25,0 -20,-7.73 -7.75,-7.73 -7.66,-19.4 0,-11.93 7.68,-19.79 A 25.81,25.81 0 0 1 225,28 q 12.3,0 20,7.88 7.7,7.88 7.71,20.8 z M 239.55,48.83 A 13.12,13.12 0 0 0 234.44,41.75 14.79,14.79 0 0 0 225.6,39 15.65,15.65 0 0 0 216,42.08 q -2.59,1.92 -4.8,6.75 z"
         id="path14-7" />
      <path
         class="cls-1"
         d="m 282.4,10.11 h 13.07 V 29.3 h 7.75 v 11.25 h -7.75 V 81.38 H 282.4 V 40.55 h -6.7 V 29.3 h 6.7 z"
         id="path16-0" />
      <path
         class="cls-1"
         d="m 308.44,29.3 h 11.2 v 6.56 a 14,14 0 0 1 4.84,-5.86 11.65,11.65 0 0 1 6.6,-2 12.27,12.27 0 0 1 5.32,1.34 l -4.07,11.25 a 8.92,8.92 0 0 0 -3.78,-1.15 q -3,0 -5.1,3.74 -2.1,3.74 -2.08,14.64 l 0.05,2.54 v 21.02 h -13 z"
         id="path18-8" />
      <path
         class="cls-1"
         d="m 390.13,59.13 h -42 A 14,14 0 0 0 353,68 a 15.29,15.29 0 0 0 10.08,3.28 17.41,17.41 0 0 0 12.59,-5.13 l 11,5.17 a 26,26 0 0 1 -9.86,8.64 30.82,30.82 0 0 1 -13.65,2.8 q -12.26,0 -20,-7.73 -7.74,-7.73 -7.7,-19.36 0,-11.93 7.68,-19.79 A 25.8,25.8 0 0 1 362.47,28 q 12.3,0 20,7.88 7.7,7.88 7.7,20.8 z M 377.07,48.83 A 13.17,13.17 0 0 0 372,41.75 14.8,14.8 0 0 0 363.11,39 a 15.67,15.67 0 0 0 -9.59,3.06 q -2.58,1.92 -4.79,6.75 z"
         id="path20-9" />
      <path
         class="cls-1"
         d="m 448,59.13 h -42 a 14,14 0 0 0 4.86,8.87 15.31,15.31 0 0 0 10.08,3.28 17.41,17.41 0 0 0 12.59,-5.13 l 11,5.17 a 25.92,25.92 0 0 1 -9.86,8.64 30.8,30.8 0 0 1 -13.67,2.76 q -12.26,0 -20,-7.73 -7.74,-7.73 -7.71,-19.36 0,-11.93 7.68,-19.79 A 25.81,25.81 0 0 1 420.32,28 q 12.3,0 20,7.88 7.7,7.88 7.7,20.8 z M 434.93,48.83 A 13.12,13.12 0 0 0 429.82,41.75 14.79,14.79 0 0 0 421,39 a 15.63,15.63 0 0 0 -9.59,3.06 q -2.6,1.92 -4.8,6.75 z"
         id="path22-3" />
      <path
         class="cls-2"
         d="M 224.94,24.12 C 225,23.22 226.65,0.05 200.8,0 h -0.05 0.05 c -0.08,0.9 -1.71,24.07 24.14,24.12 z"
         id="path24-0" />
      <path
         class="cls-2"
         d="m 228.76,24.12 c 0.69,0.06 18.49,1.32 18.53,-18.55 v 0 0 0 C 246.6,5.51 228.8,4.26 228.76,24.12 Z"
         id="path26-8" />
    </g>
  </g>
</svg>
